     <svg
                  xmlns="http://www.w3.org/2000/svg"
                  width="45"
                  height="108"
                  viewBox="0 0 45 108"
                  fill="none"
                >
                  <path
                    d="M44.3191 103.737C42.2131 103.272 40.1184 102.594 37.9143 101.665C37.888 101.653 37.8226 101.579 37.8021 101.513C37.5824 100.764 37.5088 100.009 37.5765 99.206C38.0081 94.0777 34.9543 88.674 30.3161 86.3574C30.2175 86.3073 30.1146 86.264 29.9961 86.2155L29.8861 86.1699C29.7817 86.1253 29.6544 86.1439 29.5701 86.2116C29.479 86.2819 29.4337 86.3964 29.4523 86.5113L29.5792 87.2976C29.6918 87.9935 29.8022 88.6743 29.9079 89.3559L29.9346 89.5342C30.2324 91.4711 30.5403 93.474 31.1401 95.3981C31.6814 97.1341 32.5165 98.504 33.6781 99.5536C31.2241 98.1066 28.9374 96.3677 26.8606 94.3677C26.817 94.3257 26.7653 94.2144 26.7578 94.1226L26.7021 92.7501C26.7018 92.7013 26.7011 92.5718 26.7288 92.5077C27.7517 90.1246 28.0137 87.4421 27.5304 84.3076C27.0644 81.2844 25.7736 78.5043 23.6935 76.0441C23.4501 75.756 23.2353 75.6102 23.055 75.6102C23.011 75.6102 22.9713 75.619 22.9401 75.6353C22.8444 75.6828 22.7796 75.7749 22.7669 75.8813L22.7113 76.3601C22.6683 76.7155 22.627 77.0644 22.5899 77.4139C22.5258 78.0297 22.4555 78.6445 22.3848 79.2597L22.3748 79.3485C22.199 80.8844 22.0167 82.4726 21.9204 84.0629C21.8084 85.918 21.8416 88.0846 22.9381 90.0888C22.944 90.0989 22.9492 90.1096 22.9551 90.1197C21.4309 88.2138 20.0396 86.1627 18.7982 83.9893C18.6886 83.796 18.6791 83.6264 18.6996 83.3803C18.7878 82.3398 19.2715 81.4943 19.7808 80.736C20.7647 79.2675 21.3603 77.5318 21.7121 75.1077C22.2039 71.7177 21.7072 68.3169 20.2368 64.9991C20.1964 64.9077 20.1492 64.8195 20.0988 64.7248L19.9839 64.508C19.9289 64.4022 19.8114 64.3326 19.6874 64.3381C19.5637 64.3446 19.4547 64.4231 19.4098 64.537C19.0531 65.4366 18.7081 66.3033 18.3654 67.1635L18.1463 67.7132C17.4153 69.5491 16.5955 71.6926 16.119 73.9042C15.7831 75.4648 15.7626 76.971 16.0572 78.405C14.9141 75.6844 13.9745 72.8096 13.2549 69.8287C13.2468 69.7955 13.2442 69.7096 13.3155 69.5114C13.652 68.5903 14.2648 67.7552 15.0414 67.1599C16.7413 65.8561 17.7057 64.0439 18.4246 62.4433C19.8967 59.1698 20.296 55.6922 19.6451 51.811C19.6383 51.7703 19.6259 51.73 19.6112 51.686L19.5995 51.6509C19.5712 51.564 19.5068 51.4937 19.4215 51.4569C19.3382 51.4221 19.2334 51.4286 19.1686 51.4605C19.1035 51.4843 19.0049 51.5204 18.9408 51.6144C18.5724 52.1065 18.1984 52.6032 17.8241 53.0995L17.7613 53.1832C16.8175 54.4365 15.8414 55.7319 14.9034 57.0224C13.8167 58.5133 13.0492 59.9626 12.5568 61.4532C12.3192 62.1731 12.164 62.866 12.0907 63.5391C11.778 61.1206 11.6006 58.6513 11.5619 56.1615C11.5528 55.5672 11.6283 55.095 12.0341 54.5778C12.4637 54.0265 12.865 53.7186 13.4183 53.5155C15.6917 52.6849 17.1501 50.9297 18.1665 49.4934C19.8085 47.1699 20.7715 44.4663 21.1107 41.2279C21.1468 40.8946 21.1673 40.5575 21.1884 40.2008L21.1936 40.1197C21.2037 39.9462 21.2145 39.7656 21.2281 39.5742C21.2366 39.4473 21.1686 39.3282 21.055 39.2706C20.945 39.2153 20.8041 39.2315 20.7084 39.3126L20.4386 39.5436C20.337 39.6302 20.2501 39.7044 20.16 39.7767C19.7268 40.1246 19.292 40.4689 18.8562 40.8143L18.8106 40.8501C17.8541 41.6077 16.8647 42.3911 15.9198 43.2002C14.0865 44.7638 12.906 46.3201 12.2047 48.0988C12.0888 48.392 11.9873 48.682 11.9 48.9691C12.1884 46.1427 12.6567 43.3594 13.2998 40.659C13.378 40.3287 13.4216 40.2317 13.582 40.179C13.6829 40.1448 13.777 40.079 13.8457 39.9977C14.312 39.4675 14.9262 39.3835 15.5211 39.3715C17.5065 39.3249 19.0811 38.3345 20.3592 37.3718C23.493 35.0116 25.6509 29.023 25.6509 28.8199C25.6509 28.7142 25.5981 28.6156 25.5086 28.556C25.4204 28.4977 25.3013 28.4896 25.2115 28.5296C24.5586 28.8066 23.9057 29.0764 23.2297 29.356C21.7424 29.9727 20.2046 30.61 18.7276 31.3068C17.2412 32.0101 16.0666 32.9507 15.2269 34.1081C16.0272 31.8341 16.9551 29.6046 17.994 27.4621C18.1135 27.231 18.6746 26.9856 19.4791 26.9856C19.7408 26.9856 19.9943 27.0136 20.2133 27.0663C22.1036 27.5194 23.978 27.2447 26.0525 26.2081C28.1748 25.1471 29.9356 23.4124 31.4353 20.9034C31.464 20.8549 31.5203 20.7068 31.5506 20.6238C31.5886 20.5222 31.5733 20.4103 31.5102 20.3253C31.4516 20.2446 31.3579 20.1965 31.2384 20.1965C31.2375 20.1965 31.2368 20.1965 31.2358 20.1965L30.4866 20.2436C30.0274 20.2726 29.5815 20.3009 29.1356 20.3237L28.6595 20.3478C27.2378 20.4194 25.7674 20.493 24.3288 20.8357C22.6882 21.2301 21.4836 21.8358 20.56 22.7341C21.6532 20.9144 22.8239 19.183 24.0571 17.5612C24.0903 17.5182 24.2494 17.4525 24.3799 17.4307C24.445 17.4154 24.682 17.3656 24.997 17.3656C25.4149 17.3656 25.7807 17.4505 26.0909 17.6211C28.0616 18.5848 30.2747 18.6564 32.6776 17.831C34.6486 17.1576 36.3179 15.9068 37.7812 14.0084C37.8287 13.9472 37.8717 13.8805 37.9108 13.8102C37.9553 13.7292 37.9583 13.64 37.9192 13.5586C37.806 13.321 37.3158 13.2094 37.1095 13.1723C36.6031 13.0838 36.0293 12.9829 35.4603 12.9057C35.1996 12.8693 34.9386 12.8312 34.677 12.7925L34.6434 12.7873C33.7569 12.6564 32.8404 12.521 31.917 12.4745C30.2298 12.3883 28.7317 12.7326 27.5057 13.4948C28.3301 12.6174 29.1724 11.7848 30.0277 11.0028C30.2982 10.7561 30.6041 10.5074 31.021 10.1953C31.0532 10.1705 31.1353 10.1416 31.2358 10.1357C34.1907 10.0202 36.6496 8.71572 38.7521 6.14846C39.8974 4.75092 40.7755 2.98821 41.4372 0.759437L41.4599 0.682953C41.5306 0.448619 41.5696 0.319735 41.4072 0.16872C41.2819 0.052204 41.0613 0.0867041 40.4878 0.313878C39.967 0.514038 39.443 0.70834 38.9051 0.907849C37.8242 1.3085 36.7062 1.72281 35.6273 2.19083C33.8242 2.97454 32.3844 4.16249 31.3484 5.72113C30.5595 6.90712 30.2477 8.09864 30.3945 9.35754C30.3935 9.37153 30.3812 9.40506 30.3792 9.40896C28.497 11.034 26.6979 12.8634 24.8506 15.0408C26.0824 13.1573 26.8854 10.9888 27.2883 8.47488C27.6945 5.94049 27.7202 3.6847 27.3674 1.57895C27.3449 1.44714 27.3146 1.31533 27.2759 1.15032L27.2183 0.896132C27.1923 0.787101 27.1102 0.698901 27.0025 0.665053C26.8948 0.633157 26.774 0.661472 26.6937 0.737956C26.5648 0.859354 26.4385 0.973918 26.3151 1.08523L26.2282 1.16366C25.9125 1.44812 25.6144 1.71663 25.3446 2.02028C22.723 4.97777 21.194 8.10157 20.6703 11.5704C20.4317 13.1381 20.5307 14.4728 20.973 15.6497C21.1194 16.0396 21.3479 16.3879 21.5754 16.7335C21.6796 16.8914 21.7837 17.0499 21.8791 17.2126C21.9494 17.3294 21.9552 17.3597 21.9549 17.3542C21.9116 17.818 21.8495 18.3348 21.7655 18.9551C21.7619 18.9629 21.7502 18.9812 21.7128 19.0306L21.6825 19.0726C20.2488 21.0654 18.9261 23.1663 17.7359 25.3407C18.2039 23.7167 18.5766 21.661 18.5502 19.2725C18.5183 16.4074 17.8586 13.8522 16.5327 11.4597C16.4803 11.3666 16.3852 11.3061 16.2521 11.297C16.1555 11.297 16.0624 11.3448 16.0015 11.4265C15.9618 11.4818 15.9215 11.5339 15.8831 11.5834C15.7975 11.694 15.7174 11.7988 15.6458 11.9108C14.59 13.5664 14.0237 15.392 13.6478 16.7976C12.9607 19.3756 12.645 21.5283 12.6541 23.5725C12.6593 25.3101 12.976 26.6458 13.651 27.7762C13.8609 28.128 14.1252 28.4359 14.3908 28.7457C14.5317 28.9101 14.6766 29.079 14.8077 29.2522C14.8995 29.3726 14.9438 29.4953 14.9464 29.5636C14.9636 29.9757 14.9545 30.3945 14.9457 30.7994L14.9395 31.0793C14.9386 31.1275 14.9275 31.1828 14.9109 31.2251C14.0634 33.2785 13.3184 35.4125 12.6831 37.6042C12.7765 36.8579 12.8292 36.1354 12.8426 35.4304C12.9194 31.4292 11.6921 27.8559 9.1938 24.8086L8.67305 24.1743C8.61284 24.0997 8.52367 24.0574 8.42863 24.0574L8.37656 24.062C8.26525 24.0805 8.17151 24.1577 8.13278 24.2628C8.08527 24.3894 8.03873 24.5089 7.99349 24.6244C7.90626 24.8477 7.82392 25.0592 7.75427 25.2743C7.21823 26.9534 6.95526 28.7877 6.90188 31.2209L6.9009 31.2684C6.86087 33.0386 6.80587 35.4636 7.53296 37.7842C8.24865 40.0686 9.5108 41.223 9.75555 41.4304L9.78158 41.4538C10.4478 42.0484 10.8817 42.5923 10.9715 42.9454C11.0076 43.0879 11.0444 43.2308 11.0873 43.3721C11.2774 44.0005 11.1586 44.5994 11.0304 45.2461C10.9666 45.5725 10.9002 45.9097 10.8771 46.2557C10.7853 47.6402 10.6727 49.0482 10.5637 50.4096L10.5539 50.5355C10.5259 50.8828 10.4979 51.2301 10.4703 51.5773C10.1923 48.462 9.1606 45.6301 7.38552 43.1257C6.29847 41.5934 5.00248 40.2824 3.53268 39.2283C3.46922 39.1827 3.4025 39.142 3.31332 39.089C3.27003 39.0639 3.21991 39.034 3.15905 38.9959C3.06727 38.9409 2.94945 38.936 2.85474 38.9822C2.75775 39.0294 2.69103 39.1254 2.67997 39.2341C2.66011 39.431 2.637 39.6218 2.6126 39.8196C2.56345 40.2248 2.51691 40.6076 2.51496 41.0007C2.49315 45.0762 3.3553 48.8952 5.07831 52.3503C5.55837 53.3143 6.1927 54.1482 6.96437 54.8297C7.72954 55.5018 8.55524 55.8982 9.48704 56.0407C9.50754 56.0443 9.55636 56.0739 9.56385 56.0798C9.6143 56.181 9.6667 56.2826 9.7191 56.3844C9.90526 56.7441 10.0976 57.1161 10.1933 57.4891C10.273 57.8044 10.273 58.1491 10.273 58.5143C10.273 58.648 10.273 58.7828 10.2773 58.9149C10.3668 62.0719 10.4843 63.1713 10.9894 65.9921C10.6812 65.1534 10.2942 64.3124 9.7946 63.5033C7.77152 60.2288 5.20133 58.0062 1.93726 56.7093C1.72961 56.6256 1.52132 56.5654 1.27982 56.4951L1.23165 56.4808C1.13369 56.4521 1.02987 56.4215 0.918882 56.3877C0.818639 56.3548 0.704401 56.3773 0.62271 56.445C0.541344 56.5123 0.498708 56.6155 0.509449 56.7229C0.533533 56.9468 0.550132 57.1646 0.565428 57.3771C0.598951 57.8432 0.630521 58.2832 0.743457 58.7187C1.79666 62.7866 3.53984 66.0266 6.07227 68.6242C7.15509 69.7346 8.29617 70.3712 9.56059 70.5708C9.87955 70.6206 10.2695 70.6267 10.9295 70.5857L11.1196 70.5743C11.1485 70.5727 11.1739 70.5711 11.197 70.5711C11.2491 70.5711 11.2533 70.5711 11.2895 70.6245L12.1737 71.8388C12.1851 71.8547 12.2017 71.9123 12.2131 71.952L12.2261 71.9956C13.144 75.1071 14.2827 78.1039 15.6256 80.9482C15.0212 80.114 14.3589 79.3524 13.6208 78.6361C10.2262 75.3424 4.4225 75.247 3.7719 75.247L3.69086 75.2477L3.63976 75.2571C3.48028 75.3137 3.39403 75.4843 3.44318 75.6447C3.48842 75.7961 3.53073 75.949 3.57922 76.1287C3.67198 76.4662 3.76832 76.8148 3.90338 77.152C4.5465 78.7591 5.58896 80.3051 7.18471 82.0189C8.2812 83.1939 9.51731 84.3854 11.1248 85.1388C12.8852 85.9655 14.4748 86.1673 16.0555 85.7624C16.3244 85.6918 16.6336 85.6023 16.8995 85.4298C17.0889 85.3084 17.1406 85.3123 17.3268 85.451C17.5475 85.615 17.7821 85.7527 18.01 85.8861C18.1359 85.96 18.2628 86.0345 18.3813 86.1094C18.4002 86.1253 18.4405 86.1914 18.4555 86.2158C19.8739 88.5292 21.4364 90.6792 23.1236 92.6404C22.211 91.9765 21.274 91.4961 20.2788 91.1762C17.2373 90.1962 14.0494 90.3209 10.8921 91.5417C10.4208 91.7243 9.90428 92.0009 9.86978 92.0204C9.79753 92.068 9.74774 92.1448 9.73211 92.233C9.71844 92.3195 9.7409 92.4081 9.79363 92.4758C9.89224 92.604 9.9876 92.7329 10.082 92.8608L10.1028 92.8888C10.316 93.1791 10.5575 93.5075 10.8283 93.7984C12.0478 95.1058 13.5518 95.9823 14.9955 96.7348C16.9808 97.7649 19.0111 98.3198 21.0303 98.3849C21.1253 98.3881 21.2203 98.3901 21.315 98.3901C23.1725 98.3901 24.6224 97.7779 25.74 96.5258C25.7537 96.5161 25.8022 96.4975 25.8289 96.4972C26.2559 96.5278 26.6618 96.59 26.9651 96.6404C27.0129 96.6489 27.0718 96.6775 27.1086 96.7107C28.9758 98.3637 30.9533 99.8146 33.019 101.049C32.7059 100.957 32.3834 100.876 32.0534 100.811C29.8458 100.387 27.5929 100.653 25.1191 101.636C23.4501 102.301 21.8979 103.279 20.3738 104.624C20.2482 104.734 20.2306 104.924 20.3341 105.055C20.8734 105.742 21.5751 106.126 22.1905 106.411C23.6916 107.109 25.3859 107.555 27.3722 107.777C27.3781 107.777 28.0163 107.833 28.9114 107.833C29.5574 107.833 30.1585 107.804 30.6972 107.747C31.2121 107.693 31.7257 107.605 32.2239 107.485C34.5126 106.928 36.0634 105.782 36.9519 104.003C36.9679 103.988 37.0362 103.948 37.1228 103.927C37.5358 103.825 37.9075 103.752 38.261 103.705C38.3443 103.692 38.4481 103.714 38.5789 103.767C40.1594 104.376 41.832 104.883 43.5468 105.275C43.5709 105.28 43.596 105.283 43.621 105.283C43.7362 105.283 43.8423 105.22 43.8983 105.116C44.062 104.812 44.2615 104.52 44.491 104.248C44.5629 104.162 44.5844 104.048 44.5489 103.943C44.5151 103.841 44.4291 103.763 44.3191 103.737Z"
                    fill="white"
                    fillOpacity="0.79"
                  />
                </svg>