  <svg
                  xmlns="http://www.w3.org/2000/svg"
                  width="45"
                  height="108"
                  viewBox="0 0 45 108"
                  fill="none"
                >
                  <path
                    d="M0.485542 103.737C2.59162 103.272 4.68631 102.594 6.89035 101.665C6.91671 101.653 6.98212 101.579 7.00263 101.513C7.22232 100.764 7.29587 100.009 7.22818 99.206C6.79661 94.0777 9.85044 88.674 14.4886 86.3574C14.5872 86.3073 14.6901 86.264 14.8086 86.2155L14.9186 86.1699C15.023 86.1253 15.1503 86.1439 15.2346 86.2116C15.3257 86.2819 15.371 86.3964 15.3524 86.5113L15.2255 87.2976C15.1129 87.9935 15.0025 88.6743 14.8968 89.3559L14.8701 89.5342C14.5723 91.4711 14.2644 93.474 13.6645 95.3981C13.1233 97.1341 12.2882 98.504 11.1266 99.5536C13.5806 98.1066 15.8673 96.3677 17.9441 94.3677C17.9877 94.3257 18.0394 94.2144 18.0469 94.1226L18.1026 92.7501C18.1029 92.7013 18.1035 92.5718 18.0759 92.5077C17.0529 90.1246 16.791 87.4421 17.2743 84.3076C17.7403 81.2844 19.0311 78.5043 21.1112 76.0441C21.3546 75.756 21.5694 75.6102 21.7497 75.6102C21.7937 75.6102 21.8334 75.619 21.8646 75.6353C21.9603 75.6828 22.0251 75.7749 22.0378 75.8813L22.0934 76.3601C22.1364 76.7155 22.1777 77.0644 22.2148 77.4139C22.2789 78.0297 22.3492 78.6445 22.4198 79.2597L22.4299 79.3485C22.6057 80.8844 22.7879 82.4726 22.8843 84.0629C22.9962 85.918 22.963 88.0846 21.8666 90.0888C21.8607 90.0989 21.8555 90.1096 21.8496 90.1197C23.3738 88.2138 24.7651 86.1627 26.0065 83.9893C26.1161 83.796 26.1256 83.6264 26.1051 83.3803C26.0169 82.3398 25.5332 81.4943 25.0239 80.736C24.04 79.2675 23.4444 77.5318 23.0926 75.1077C22.6008 71.7177 23.0975 68.3169 24.5679 64.9991C24.6083 64.9077 24.6555 64.8195 24.7059 64.7248L24.8208 64.508C24.8758 64.4022 24.9933 64.3326 25.1173 64.3381C25.241 64.3446 25.35 64.4231 25.3949 64.537C25.7516 65.4366 26.0966 66.3033 26.4393 67.1635L26.6584 67.7132C27.3894 69.5491 28.2092 71.6926 28.6857 73.9042C29.0216 75.4648 29.0421 76.971 28.7475 78.405C29.8905 75.6844 30.8302 72.8096 31.5498 69.8287C31.5579 69.7955 31.5605 69.7096 31.4892 69.5114C31.1527 68.5903 30.5398 67.7552 29.7633 67.1599C28.0634 65.8561 27.099 64.0439 26.3801 62.4433C24.908 59.1698 24.5087 55.6922 25.1596 51.811C25.1664 51.7703 25.1788 51.73 25.1934 51.686L25.2052 51.6509C25.2335 51.564 25.2979 51.4937 25.3832 51.4569C25.4665 51.4221 25.5713 51.4286 25.6361 51.4605C25.7012 51.4843 25.7998 51.5204 25.8639 51.6144C26.2323 52.1065 26.6063 52.6032 26.9806 53.0995L27.0434 53.1832C27.9872 54.4365 28.9633 55.7319 29.9013 57.0224C30.988 58.5133 31.7554 59.9626 32.2479 61.4532C32.4855 62.1731 32.6407 62.866 32.7139 63.5391C33.0267 61.1206 33.2041 58.6513 33.2428 56.1615C33.2519 55.5672 33.1764 55.095 32.7706 54.5778C32.341 54.0265 31.9397 53.7186 31.3864 53.5155C29.113 52.6849 27.6546 50.9297 26.6382 49.4934C24.9962 47.1699 24.0332 44.4663 23.694 41.2279C23.6579 40.8946 23.6374 40.5575 23.6163 40.2008L23.611 40.1197C23.601 39.9462 23.5902 39.7656 23.5765 39.5742C23.5681 39.4473 23.6361 39.3282 23.7497 39.2706C23.8597 39.2153 24.0006 39.2315 24.0963 39.3126L24.3661 39.5436C24.4677 39.6302 24.5546 39.7044 24.6447 39.7767C25.0779 40.1246 25.5127 40.4689 25.9485 40.8143L25.9941 40.8501C26.9506 41.6077 27.94 42.3911 28.8849 43.2002C30.7182 44.7638 31.8987 46.3201 32.6 48.0988C32.7159 48.392 32.8174 48.682 32.9047 48.9691C32.6163 46.1427 32.148 43.3594 31.5048 40.659C31.4267 40.3287 31.3831 40.2317 31.2227 40.179C31.1218 40.1448 31.0277 40.079 30.959 39.9977C30.4926 39.4675 29.8785 39.3835 29.2836 39.3715C27.2982 39.3249 25.7236 38.3345 24.4455 37.3718C21.3116 35.0116 19.1538 29.023 19.1538 28.8199C19.1538 28.7142 19.2065 28.6156 19.296 28.556C19.3842 28.4977 19.5034 28.4896 19.5932 28.5296C20.2461 28.8066 20.899 29.0764 21.5749 29.356C23.0623 29.9727 24.6001 30.61 26.0771 31.3068C27.5635 32.0101 28.7381 32.9507 29.5778 34.1081C28.7775 31.8341 27.8496 29.6046 26.8107 27.4621C26.6912 27.231 26.1301 26.9856 25.3256 26.9856C25.0639 26.9856 24.8104 27.0136 24.5913 27.0663C22.701 27.5194 20.8267 27.2447 18.7522 26.2081C16.6298 25.1471 14.8691 23.4124 13.3694 20.9034C13.3407 20.8549 13.2844 20.7068 13.2541 20.6238C13.2161 20.5222 13.2314 20.4103 13.2945 20.3253C13.3531 20.2446 13.4468 20.1965 13.5663 20.1965C13.5672 20.1965 13.5679 20.1965 13.5689 20.1965L14.3181 20.2436C14.7773 20.2726 15.2232 20.3009 15.6691 20.3237L16.1452 20.3478C17.5669 20.4194 19.0373 20.493 20.4759 20.8357C22.1165 21.2301 23.3211 21.8358 24.2447 22.7341C23.1515 20.9144 21.9808 19.183 20.7476 17.5612C20.7144 17.5182 20.5553 17.4525 20.4248 17.4307C20.3597 17.4154 20.1227 17.3656 19.8077 17.3656C19.3898 17.3656 19.024 17.4505 18.7138 17.6211C16.7431 18.5848 14.53 18.6564 12.1271 17.831C10.156 17.1576 8.48674 15.9068 7.02346 14.0084C6.97594 13.9472 6.93298 13.8805 6.89392 13.8102C6.84934 13.7292 6.84641 13.64 6.88546 13.5586C6.99873 13.321 7.48887 13.2094 7.69522 13.1723C8.20164 13.0838 8.77543 12.9829 9.34434 12.9057C9.60504 12.8693 9.86606 12.8312 10.1277 12.7925L10.1613 12.7873C11.0478 12.6564 11.9643 12.521 12.8877 12.4745C14.5749 12.3883 16.073 12.7326 17.299 13.4948C16.4746 12.6174 15.6323 11.7848 14.777 11.0028C14.5065 10.7561 14.2006 10.5074 13.7837 10.1953C13.7514 10.1705 13.6694 10.1416 13.5689 10.1357C10.614 10.0202 8.1551 8.71572 6.0526 6.14846C4.9073 4.75092 4.02919 2.98821 3.36753 0.759437L3.34475 0.682953C3.27412 0.448619 3.23506 0.319735 3.39747 0.16872C3.52277 0.052204 3.74343 0.0867041 4.3169 0.313878C4.83765 0.514038 5.36164 0.70834 5.89964 0.907849C6.9805 1.3085 8.09846 1.72281 9.17738 2.19083C10.9804 2.97454 12.4203 4.16249 13.4563 5.72113C14.2452 6.90712 14.557 8.09864 14.4102 9.35754C14.4112 9.37153 14.4235 9.40506 14.4255 9.40896C16.3076 11.034 18.1068 12.8634 19.9541 15.0408C18.7223 13.1573 17.9193 10.9888 17.5164 8.47488C17.1102 5.94049 17.0845 3.6847 17.4373 1.57895C17.4598 1.44714 17.49 1.31533 17.5288 1.15032L17.5864 0.896132C17.6124 0.787101 17.6944 0.698901 17.8022 0.665053C17.9099 0.633157 18.0306 0.661472 18.111 0.737956C18.2399 0.859354 18.3662 0.973918 18.4895 1.08523L18.5764 1.16366C18.8921 1.44812 19.1903 1.71663 19.4601 2.02028C22.0817 4.97777 23.6107 8.10157 24.1344 11.5704C24.373 13.1381 24.274 14.4728 23.8317 15.6497C23.6852 16.0396 23.4568 16.3879 23.2293 16.7335C23.1251 16.8914 23.021 17.0499 22.9256 17.2126C22.8553 17.3294 22.8495 17.3597 22.8498 17.3542C22.8931 17.818 22.9552 18.3348 23.0392 18.9551C23.0428 18.9629 23.0545 18.9812 23.0919 19.0306L23.1222 19.0726C24.5559 21.0654 25.8785 23.1663 27.0688 25.3407C26.6008 23.7167 26.2281 21.661 26.2545 19.2725C26.2864 16.4074 26.9461 13.8522 28.272 11.4597C28.3244 11.3666 28.4194 11.3061 28.5526 11.297C28.6492 11.297 28.7423 11.3448 28.8032 11.4265C28.8429 11.4818 28.8832 11.5339 28.9216 11.5834C29.0072 11.694 29.0873 11.7988 29.1589 11.9108C30.2147 13.5664 30.781 15.392 31.1569 16.7976C31.844 19.3756 32.1597 21.5283 32.1506 23.5725C32.1454 25.3101 31.8287 26.6458 31.1537 27.7762C30.9437 28.128 30.6795 28.4359 30.4139 28.7457C30.273 28.9101 30.1281 29.079 29.997 29.2522C29.9052 29.3726 29.8609 29.4953 29.8583 29.5636C29.8411 29.9757 29.8502 30.3945 29.859 30.7994L29.8652 31.0793C29.8661 31.1275 29.8772 31.1828 29.8938 31.2251C30.7413 33.2785 31.4863 35.4125 32.1216 37.6042C32.0282 36.8579 31.9755 36.1354 31.9621 35.4304C31.8853 31.4292 33.1126 27.8559 35.6109 24.8086L36.1316 24.1743C36.1918 24.0997 36.281 24.0574 36.3761 24.0574L36.4281 24.062C36.5394 24.0805 36.6332 24.1577 36.6719 24.2628C36.7194 24.3894 36.766 24.5089 36.8112 24.6244C36.8984 24.8477 36.9808 25.0592 37.0504 25.2743C37.5865 26.9534 37.8494 28.7877 37.9028 31.2209L37.9038 31.2684C37.9438 33.0386 37.9988 35.4636 37.2717 37.7842C36.556 40.0686 35.2939 41.223 35.0491 41.4304L35.0231 41.4538C34.3569 42.0484 33.923 42.5923 33.8332 42.9454C33.7971 43.0879 33.7603 43.2308 33.7173 43.3721C33.5273 44.0005 33.6461 44.5994 33.7743 45.2461C33.8381 45.5725 33.9045 45.9097 33.9276 46.2557C34.0194 47.6402 34.132 49.0482 34.241 50.4096L34.2508 50.5355C34.2788 50.8828 34.3068 51.2301 34.3344 51.5773C34.6124 48.462 35.6441 45.6301 37.4192 43.1257C38.5062 41.5934 39.8022 40.2824 41.272 39.2283C41.3355 39.1827 41.4022 39.142 41.4914 39.089C41.5347 39.0639 41.5848 39.034 41.6456 38.9959C41.7374 38.9409 41.8552 38.936 41.9499 38.9822C42.0469 39.0294 42.1137 39.1254 42.1247 39.2341C42.1446 39.431 42.1677 39.6218 42.1921 39.8196C42.2412 40.2248 42.2878 40.6076 42.2897 41.0007C42.3115 45.0762 41.4494 48.8952 39.7264 52.3503C39.2463 53.3143 38.612 54.1482 37.8403 54.8297C37.0752 55.5018 36.2495 55.8982 35.3176 56.0407C35.2971 56.0443 35.2483 56.0739 35.2408 56.0798C35.1904 56.181 35.138 56.2826 35.0856 56.3844C34.8994 56.7441 34.7071 57.1161 34.6114 57.4891C34.5317 57.8044 34.5317 58.1491 34.5317 58.5143C34.5317 58.648 34.5317 58.7828 34.5274 58.9149C34.4379 62.0719 34.3204 63.1713 33.8153 65.9921C34.1235 65.1534 34.5105 64.3124 35.0101 63.5033C37.0332 60.2288 39.6034 58.0062 42.8674 56.7093C43.0751 56.6256 43.2834 56.5654 43.5249 56.4951L43.573 56.4808C43.671 56.4521 43.7748 56.4215 43.8858 56.3877C43.986 56.3548 44.1003 56.3773 44.182 56.445C44.2633 56.5123 44.306 56.6155 44.2952 56.7229C44.2712 56.9468 44.2546 57.1646 44.2393 57.3771C44.2057 57.8432 44.1742 58.2832 44.0612 58.7187C43.008 62.7866 41.2648 66.0266 38.7324 68.6242C37.6496 69.7346 36.5085 70.3712 35.2441 70.5708C34.9251 70.6206 34.5352 70.6267 33.8752 70.5857L33.6851 70.5743C33.6562 70.5727 33.6308 70.5711 33.6077 70.5711C33.5556 70.5711 33.5514 70.5711 33.5152 70.6245L32.6309 71.8388C32.6196 71.8547 32.603 71.9123 32.5916 71.952L32.5785 71.9956C31.6607 75.1071 30.5219 78.1039 29.1791 80.9482C29.7835 80.114 30.4458 79.3524 31.1839 78.6361C34.5785 75.3424 40.3822 75.247 41.0328 75.247L41.1138 75.2477L41.1649 75.2571C41.3244 75.3137 41.4107 75.4843 41.3615 75.6447C41.3163 75.7961 41.274 75.949 41.2255 76.1287C41.1327 76.4662 41.0364 76.8148 40.9013 77.152C40.2582 78.7591 39.2157 80.3051 37.62 82.0189C36.5235 83.1939 35.2874 84.3854 33.6799 85.1388C31.9195 85.9655 30.3299 86.1673 28.7491 85.7624C28.4803 85.6918 28.1711 85.6023 27.9052 85.4298C27.7158 85.3084 27.664 85.3123 27.4779 85.451C27.2572 85.615 27.0226 85.7527 26.7947 85.8861C26.6688 85.96 26.5418 86.0345 26.4234 86.1094C26.4045 86.1253 26.3641 86.1914 26.3492 86.2158C24.9308 88.5292 23.3682 90.6792 21.681 92.6404C22.5936 91.9765 23.5307 91.4961 24.5259 91.1762C27.5674 90.1962 30.7553 90.3209 33.9126 91.5417C34.3839 91.7243 34.9004 92.0009 34.9349 92.0204C35.0072 92.068 35.057 92.1448 35.0726 92.233C35.0862 92.3195 35.0638 92.4081 35.0111 92.4758C34.9124 92.604 34.8171 92.7329 34.7227 92.8608L34.7019 92.8888C34.4887 93.1791 34.2472 93.5075 33.9764 93.7984C32.7569 95.1058 31.2529 95.9823 29.8092 96.7348C27.8238 97.7649 25.7936 98.3198 23.7744 98.3849C23.6794 98.3881 23.5844 98.3901 23.4896 98.3901C21.6322 98.3901 20.1823 97.7779 19.0646 96.5258C19.051 96.5161 19.0025 96.4975 18.9758 96.4972C18.5488 96.5278 18.1429 96.59 17.8396 96.6404C17.7918 96.6489 17.7328 96.6775 17.6961 96.7107C15.8289 98.3637 13.8514 99.8146 11.7856 101.049C12.0987 100.957 12.4213 100.876 12.7513 100.811C14.9589 100.387 17.2118 100.653 19.6856 101.636C21.3546 102.301 22.9067 103.279 24.4309 104.624C24.5565 104.734 24.5741 104.924 24.4706 105.055C23.9313 105.742 23.2296 106.126 22.6141 106.411C21.1131 107.109 19.4187 107.555 17.4324 107.777C17.4266 107.777 16.7883 107.833 15.8933 107.833C15.2473 107.833 14.6461 107.804 14.1075 107.747C13.5926 107.693 13.079 107.605 12.5808 107.485C10.2921 106.928 8.74126 105.782 7.85274 104.003C7.83679 103.988 7.76844 103.948 7.68187 103.927C7.26886 103.825 6.89718 103.752 6.54372 103.705C6.46041 103.692 6.35658 103.714 6.22575 103.767C4.64529 104.376 2.97274 104.883 1.25787 105.275C1.23378 105.28 1.20872 105.283 1.18367 105.283C1.06845 105.283 0.962349 105.22 0.906368 105.116C0.742661 104.812 0.543152 104.52 0.313698 104.248C0.241772 104.162 0.220295 104.048 0.255768 103.943C0.289616 103.841 0.375538 103.763 0.485542 103.737Z"
                    fill="black"
                    fillOpacity="0.79"
                  />
                </svg>