<svg width="138" height="63" viewBox="0 0 138 63" fill="none" xmlns="http://www.w3.org/2000/svg">
<path d="M59.1181 45.8021V41.9118L70.5295 31.7416C71.4187 30.9512 72.0362 30.204 72.382 29.5001C72.7278 28.7961 72.9007 28.1169 72.9007 27.4623C72.9007 26.5731 72.7093 25.7827 72.3265 25.0911C71.9436 24.3872 71.4126 23.8314 70.7333 23.4239C70.0664 23.0163 69.2945 22.8125 68.4177 22.8125C67.4914 22.8125 66.6702 23.0287 65.9539 23.4609C65.2499 23.8808 64.7003 24.4427 64.3051 25.1467C63.9099 25.8506 63.7247 26.6102 63.7494 27.4253H59.1552C59.1552 25.6469 59.5504 24.0969 60.3408 22.7755C61.1435 21.454 62.2427 20.429 63.6382 19.7003C65.0461 18.9717 66.6702 18.6074 68.5103 18.6074C70.2146 18.6074 71.746 18.9902 73.1045 19.7559C74.463 20.5093 75.5313 21.559 76.3093 22.9052C77.0874 24.239 77.4764 25.7765 77.4764 27.5179C77.4764 28.7899 77.3035 29.8582 76.9577 30.7227C76.6119 31.5872 76.0932 32.3838 75.4016 33.1124C74.7224 33.8411 73.8764 34.65 72.8637 35.5392L64.7683 42.7084L64.3607 41.5969H77.4764V45.8021H59.1181Z" fill="#F69A4D"/>
<circle cx="68.7693" cy="31.9389" r="30.3563" stroke="#F69A4D" stroke-width="1.1619"/>
<circle opacity="0.2" cx="30.9372" cy="30.9372" r="30.3563" transform="matrix(-1 0 0 1 137.358 1.00171)" stroke="url(#paint0_linear_324_44017)" stroke-width="1.1619"/>
<circle opacity="0.2" cx="31.1091" cy="31.9372" r="30.3563" stroke="url(#paint1_linear_324_44017)" stroke-width="1.1619"/>
<defs>
<linearGradient id="paint0_linear_324_44017" x1="0" y1="37.2563" x2="47.7855" y2="37.2563" gradientUnits="userSpaceOnUse">
<stop stop-color="#F69A4D"/>
<stop offset="1" stop-color="#F69A4D" stop-opacity="0"/>
</linearGradient>
<linearGradient id="paint1_linear_324_44017" x1="0.171875" y1="38.2563" x2="47.9573" y2="38.2563" gradientUnits="userSpaceOnUse">
<stop stop-color="#F69A4D"/>
<stop offset="1" stop-color="#F69A4D" stop-opacity="0"/>
</linearGradient>
</defs>
</svg>
