<svg width="138" height="63" viewBox="0 0 138 63" fill="none" xmlns="http://www.w3.org/2000/svg">
<circle cx="68.7693" cy="31.9389" r="30.3563" stroke="#F69A4D" stroke-width="1.1619"/>
<circle opacity="0.2" cx="30.9372" cy="30.9372" r="30.3563" transform="matrix(-1 0 0 1 137.358 1.00171)" stroke="url(#paint0_linear_324_44023)" stroke-width="1.1619"/>
<circle opacity="0.2" cx="31.1091" cy="31.9372" r="30.3563" stroke="url(#paint1_linear_324_44023)" stroke-width="1.1619"/>
<path d="M67.9914 46.3393C66.6576 46.3393 65.3979 46.0799 64.2123 45.5612C63.0267 45.0425 61.9955 44.3077 61.1187 43.3568C60.2542 42.4058 59.6305 41.282 59.2476 39.9852L63.564 38.8181C63.8727 39.8802 64.4346 40.7015 65.2497 41.282C66.0772 41.8501 66.9849 42.1279 67.9729 42.1156C68.8498 42.1156 69.634 41.9118 70.3256 41.5043C71.0172 41.0967 71.5606 40.5471 71.9558 39.8555C72.351 39.1516 72.5486 38.3674 72.5486 37.5029C72.5486 36.1814 72.1225 35.0761 71.2704 34.1869C70.4182 33.2977 69.3191 32.8531 67.9729 32.8531C67.5654 32.8531 67.164 32.9087 66.7688 33.0198C66.3859 33.131 66.0154 33.2853 65.6573 33.4829L63.6195 29.9632L72.5856 22.2938L72.9747 23.3683H60.285V19.1631H76.6426V23.3868L69.4364 30.3152L69.3993 28.9999C71.0172 29.111 72.3942 29.5618 73.5304 30.3522C74.679 31.1426 75.5558 32.1615 76.161 33.4088C76.7785 34.6562 77.0872 36.0209 77.0872 37.5029C77.0872 39.1825 76.6735 40.6892 75.846 42.023C75.0309 43.3568 73.9318 44.4127 72.5486 45.1907C71.1777 45.9564 69.6587 46.3393 67.9914 46.3393Z" fill="#F69A4D"/>
<defs>
<linearGradient id="paint0_linear_324_44023" x1="0" y1="37.2563" x2="47.7855" y2="37.2563" gradientUnits="userSpaceOnUse">
<stop stop-color="#F69A4D"/>
<stop offset="1" stop-color="#F69A4D" stop-opacity="0"/>
</linearGradient>
<linearGradient id="paint1_linear_324_44023" x1="0.171875" y1="38.2563" x2="47.9573" y2="38.2563" gradientUnits="userSpaceOnUse">
<stop stop-color="#F69A4D"/>
<stop offset="1" stop-color="#F69A4D" stop-opacity="0"/>
</linearGradient>
</defs>
</svg>
